<!DOCTYPE svg PUBLIC "-//W3C//DTD SVG 1.1//EN" "http://www.w3.org/Graphics/SVG/1.1/DTD/svg11.dtd">
<!-- Uploaded to: SVG Repo, www.svgrepo.com, Transformed by: SVG Repo Mixer Tools -->
<svg width="800px" height="800px" viewBox="0 0 16 16" xmlns="http://www.w3.org/2000/svg" fill="#000000" transform="matrix(-1, 0, 0, 1, 0, 0)">
<g id="SVGRepo_bgCarrier" stroke-width="0"/>
<g id="SVGRepo_tracerCarrier" stroke-linecap="round" stroke-linejoin="round"/>
<g id="SVGRepo_iconCarrier"> <path d="M1 4a1 1 0 000 2h14a1 1 0 100-2H1zm6.707 4.293L10.414 11l-2.707 2.707a1 1 0 01-1.414-1.414L6.586 12H1a1 1 0 110-2h5.586l-.293-.293a1 1 0 011.414-1.414zM11 11a1 1 0 011-1h3a1 1 0 110 2h-3a1 1 0 01-1-1z" fill="#000000"/> </g>
</svg>